<svg width="80" height="28" viewBox="0 0 80 28" fill="none" xmlns="http://www.w3.org/2000/svg">
<path d="M36.1826 17.4888C35.2654 17.4889 34.3622 17.2654 33.5532 16.8381C32.7442 16.4108 32.0542 15.793 31.5442 15.0392C31.0343 14.2854 30.7202 13.4189 30.6297 12.5165C30.5392 11.6141 30.6751 10.7035 31.0254 9.86541C31.3757 9.0273 31.9296 8.2875 32.638 7.71147C33.3464 7.13545 34.1876 6.74097 35.0869 6.56296C35.9863 6.38495 36.9162 6.42889 37.7943 6.6909C38.6725 6.9529 39.4717 7.42489 40.1213 8.06508L38.6082 9.56106C38.0771 9.0386 37.3881 8.70178 36.6457 8.60175C35.9034 8.50172 35.1483 8.64395 34.4952 9.00684C33.842 9.36973 33.3265 9.93345 33.027 10.6124C32.7274 11.2913 32.6601 12.0484 32.8353 12.7685C33.0106 13.4887 33.4188 14.1327 33.9979 14.6026C34.577 15.0725 35.2954 15.3428 36.044 15.3723C36.7927 15.4018 37.5305 15.1889 38.1456 14.766C38.7607 14.3431 39.2195 13.7333 39.4521 13.0292H35.1004L37.2398 10.914H41.6587C41.8167 11.7131 41.7938 12.5368 41.5918 13.3261C41.3897 14.1154 41.0135 14.8506 40.49 15.4791C39.9665 16.1076 39.3088 16.6138 38.5641 16.9612C37.8194 17.3087 37.0061 17.4889 36.1826 17.4888ZM48.8327 15.0946L50.224 16.3478C49.3169 17.1146 48.1552 17.5228 46.9622 17.4942C46.377 17.4985 45.7967 17.3894 45.254 17.1731C44.7434 16.972 44.2764 16.6763 43.8781 16.3019C43.4888 15.931 43.1786 15.4867 42.966 14.9952C42.7424 14.4812 42.6292 13.927 42.6337 13.3675C42.6301 12.8146 42.7378 12.2665 42.9506 11.7551C43.1524 11.2649 43.4491 10.8184 43.824 10.4407C44.2016 10.0643 44.6508 9.76563 45.1458 9.56177C45.6618 9.34663 46.2167 9.23743 46.7767 9.24079C47.3226 9.23653 47.863 9.34861 48.3612 9.5694C48.8397 9.781 49.2707 10.085 49.6288 10.4634C49.9939 10.856 50.2775 11.3155 50.4636 11.8161C50.6682 12.3612 50.7703 12.9388 50.765 13.5202V14.0706H44.767C44.9004 14.5542 45.1944 14.9794 45.6018 15.2779C46.0213 15.586 46.5325 15.7473 47.0549 15.7365C47.3921 15.7388 47.7271 15.6818 48.0442 15.5683C48.3374 15.466 48.6059 15.3047 48.8327 15.0946ZM44.7515 12.5727H48.6936C48.572 12.1237 48.316 11.7215 47.9592 11.4188C47.6196 11.1242 47.1821 10.9636 46.7302 10.9679C46.2733 10.9583 45.8283 11.1131 45.4781 11.4036C45.1183 11.7086 44.8642 12.1175 44.7515 12.5727ZM59.3215 17.3413V12.3893C59.3398 11.9704 59.27 11.5522 59.1167 11.1611C58.9633 10.7701 58.7296 10.4148 58.4304 10.1175C58.1312 9.82025 57.7729 9.58751 57.3782 9.43399C56.9834 9.28046 56.5608 9.20948 56.1369 9.22552C55.7188 9.22147 55.303 9.28872 54.908 9.42431C54.5332 9.556 54.1851 9.75265 53.88 10.005V9.37843H51.7621V17.3413H53.88V11.8237C54.0612 11.5727 54.303 11.3704 54.5834 11.2353C54.8799 11.0949 55.2053 11.0243 55.5341 11.0291C55.7573 11.0189 55.9803 11.0544 56.1891 11.1332C56.3979 11.2121 56.5881 11.3327 56.7476 11.4875C56.9017 11.6482 57.0215 11.8379 57.0999 12.0454C57.1782 12.2528 57.2135 12.4738 57.2036 12.695V17.3413H59.3215ZM61.8101 8.4307C62.0912 8.43253 62.3643 8.33781 62.5826 8.1627C62.801 7.9876 62.9511 7.74298 63.0073 7.47062C63.0635 7.19825 63.0224 6.91504 62.8908 6.66936C62.7593 6.42367 62.5456 6.23075 62.2862 6.12354C62.0268 6.01633 61.7378 6.00149 61.4685 6.08153C61.1993 6.16158 60.9665 6.33157 60.8099 6.56245C60.6534 6.79333 60.5827 7.0708 60.6101 7.34745C60.6374 7.62411 60.7611 7.8828 60.9599 8.07933C61.0698 8.19219 61.202 8.28159 61.3482 8.34202C61.4944 8.40245 61.6516 8.43263 61.8101 8.4307ZM60.7588 17.3413H62.8767V9.37843H60.7588V17.3413ZM67.4987 17.4942C67.92 17.4979 68.3386 17.428 68.7353 17.2878C69.1125 17.1526 69.463 16.9535 69.7711 16.6994V17.3413H71.889V9.37843H69.7711V14.8958C69.59 15.1469 69.3483 15.3493 69.0678 15.4844C68.7661 15.6258 68.4354 15.6964 68.1015 15.6906C67.8782 15.7008 67.6552 15.6654 67.4464 15.5865C67.2376 15.5075 67.0476 15.3869 66.8881 15.232C66.7329 15.069 66.6126 14.8766 66.5342 14.6666C66.4559 14.4565 66.4211 14.233 66.432 14.0094V9.37843H64.3141V14.3151C64.2991 14.7361 64.3708 15.1558 64.525 15.5486C64.6792 15.9414 64.9125 16.2991 65.2108 16.6C65.5097 16.8962 65.8671 17.1285 66.2607 17.2823C66.6543 17.4362 67.0757 17.5083 67.4987 17.4942ZM79.3576 13.3522C78.8463 12.9183 78.2119 12.6514 77.5411 12.588L75.9953 12.3588C75.6989 12.3381 75.411 12.252 75.1527 12.1066C75.0708 12.0523 75.0043 11.9781 74.9597 11.8911C74.915 11.8041 74.8937 11.7073 74.8977 11.6098C74.8985 11.4933 74.9313 11.3792 74.9926 11.2796C75.0538 11.18 75.1413 11.0987 75.2455 11.0444C75.5259 10.8897 75.8445 10.8155 76.1653 10.8303C76.58 10.8307 76.9921 10.8952 77.3866 11.0214C77.8287 11.167 78.2537 11.3591 78.6542 11.5945L79.6745 10.2495C79.1818 9.92932 78.6458 9.67974 78.0823 9.50825C77.5262 9.34025 76.9478 9.25527 76.3663 9.2561C75.4976 9.2116 74.6385 9.45352 73.9238 9.94388C73.6324 10.1533 73.3971 10.4297 73.2382 10.7493C73.0793 11.0689 73.0015 11.422 73.0118 11.778C72.9991 12.0645 73.0484 12.3504 73.1564 12.6166C73.2643 12.8828 73.4285 13.1231 73.6378 13.3216C74.1517 13.7512 74.7847 14.0176 75.4541 14.0859L77.0001 14.3151C77.2729 14.3384 77.5357 14.4276 77.7654 14.5748C77.8422 14.6313 77.9041 14.7053 77.9458 14.7904C77.9875 14.8756 78.0078 14.9694 78.005 15.064C78.0007 15.1955 77.9584 15.3229 77.883 15.4313C77.8077 15.5397 77.7024 15.6244 77.5798 15.6753C77.226 15.8432 76.8357 15.922 76.4437 15.9045C76.0114 15.903 75.5826 15.828 75.1759 15.683C74.702 15.5096 74.2505 15.2813 73.831 15.0028L72.7798 16.3937C73.2678 16.7678 73.8241 17.0454 74.4184 17.2113C75.0862 17.4039 75.7788 17.4992 76.4744 17.4942C76.9508 17.4981 77.4251 17.4311 77.8812 17.2954C78.2824 17.1789 78.6593 16.9926 78.9943 16.7452C79.2948 16.5208 79.5448 16.2371 79.7286 15.9122C79.9087 15.5921 80.0018 15.2314 79.9991 14.8652C80.0073 14.5824 79.9543 14.3011 79.8437 14.0402C79.733 13.7793 79.5673 13.5447 79.3576 13.3522ZM42.1064 21.6875L41.2052 21.5455C40.4875 21.4273 40.2081 21.2143 40.2081 20.7649C40.2081 20.276 40.6947 19.9447 41.4206 19.9447C42.0893 19.9607 42.733 20.1997 43.2469 20.623L43.7096 19.9922C43.0618 19.508 42.2724 19.2451 41.4604 19.243C40.2161 19.243 39.4027 19.866 39.4027 20.8279C39.4027 21.6245 39.9052 22.0974 40.9261 22.2632L41.8591 22.4129C42.6728 22.547 42.9917 22.7914 42.9917 23.2804C42.9917 23.8244 42.4415 24.2029 41.636 24.2029C41.273 24.1938 40.9156 24.1123 40.5852 23.9632C40.2549 23.8142 39.9584 23.6006 39.7136 23.3355L39.2032 23.9191C39.5156 24.2331 39.888 24.4826 40.2987 24.6532C40.7095 24.8238 41.1504 24.912 41.5959 24.9127C42.928 24.9127 43.8213 24.2344 43.8213 23.2172C43.8213 22.3576 43.2867 21.8768 42.1064 21.6875ZM71.0676 21.6875L70.1663 21.5455C69.4486 21.4273 69.1693 21.2143 69.1693 20.7649C69.1693 20.276 69.6559 19.9447 70.3817 19.9447C71.0505 19.9607 71.6941 20.1997 72.2081 20.623L72.6708 19.9922C72.023 19.508 71.2336 19.2451 70.4215 19.243C69.1773 19.243 68.3638 19.866 68.3638 20.8279C68.3638 21.6245 68.8663 22.0974 69.8872 22.2632L70.8203 22.4129C71.634 22.547 71.9529 22.7914 71.9529 23.2804C71.9529 23.8244 71.4026 24.2029 70.5971 24.2029C70.2341 24.1938 69.8767 24.1123 69.5464 23.9632C69.216 23.8142 68.9196 23.6006 68.6748 23.3355L68.1643 23.9191C68.4767 24.2331 68.8491 24.4827 69.2599 24.6532C69.6706 24.8238 70.1116 24.912 70.5571 24.9127C71.8892 24.9127 72.7824 24.2344 72.7824 23.2172C72.7824 22.3576 72.2479 21.8768 71.0676 21.6875ZM60.7255 22.4602L61.9697 24.8338H61.0444L59.8879 22.5706H58.3167V24.8338H57.4792V19.3139H60.0155C60.2484 19.2884 60.4841 19.3116 60.7074 19.3818C60.9307 19.4521 61.1365 19.5678 61.3117 19.7217C61.4869 19.8755 61.6274 20.064 61.7243 20.275C61.8211 20.4859 61.8721 20.7146 61.874 20.9462C61.8769 21.2882 61.7661 21.6216 61.5586 21.8952C61.3511 22.1688 61.0583 22.3673 60.7255 22.4602ZM59.9439 21.8847C60.0782 21.9047 60.2153 21.8959 60.3458 21.8587C60.4764 21.8215 60.5972 21.757 60.7002 21.6694C60.8032 21.5818 60.8858 21.4732 60.9425 21.3512C60.9991 21.2291 61.0284 21.0964 61.0284 20.9621C61.0284 20.8278 60.9991 20.6951 60.9425 20.573C60.8858 20.4509 60.8032 20.3424 60.7002 20.2548C60.5972 20.1672 60.4764 20.1026 60.3458 20.0654C60.2153 20.0283 60.0782 20.0194 59.9439 20.0394H58.3168V21.8847L59.9439 21.8847ZM56.2876 22.0738C56.2932 22.6433 56.1275 23.2016 55.8117 23.6778C55.4958 24.154 55.044 24.5268 54.5135 24.7487C53.983 24.9706 53.3978 25.0318 52.8321 24.9243C52.2665 24.8169 51.7458 24.5458 51.3363 24.1453C50.9267 23.7448 50.6467 23.2331 50.5318 22.6751C50.4169 22.117 50.4722 21.5378 50.6908 21.0109C50.9094 20.484 51.2813 20.0332 51.7595 19.7157C52.2376 19.3981 52.8004 19.2281 53.3764 19.2273C53.7576 19.2219 54.1359 19.2916 54.4895 19.4324C54.8431 19.5731 55.1648 19.7821 55.4358 20.047C55.7068 20.312 55.9217 20.6277 56.0679 20.9757C56.2142 21.3237 56.2889 21.697 56.2876 22.0738ZM55.4342 22.0738C55.4241 21.6746 55.2951 21.2871 55.0635 20.9599C54.8319 20.6327 54.5078 20.3803 54.1318 20.2342C53.7559 20.0881 53.3447 20.0549 52.9497 20.1386C52.5547 20.2224 52.1935 20.4194 51.9111 20.705C51.6288 20.9907 51.4379 21.3523 51.3624 21.7446C51.2868 22.137 51.3299 22.5426 51.4863 22.9109C51.6426 23.2791 51.9054 23.5936 52.2416 23.815C52.5778 24.0364 52.9725 24.1549 53.3765 24.1557C53.6513 24.1577 53.9237 24.1048 54.1774 24.0003C54.4312 23.8957 54.6609 23.7417 54.853 23.5473C55.0451 23.353 55.1956 23.1223 55.2955 22.8691C55.3953 22.6159 55.4425 22.3455 55.4342 22.0738ZM62.7865 20.0473H64.7484V24.8338H65.586V20.0473H67.5479V19.3139H62.7865L62.7865 20.0473ZM49.6929 20.9698C49.6931 21.1996 49.6446 21.4268 49.5506 21.637C49.4567 21.8471 49.3192 22.0355 49.1472 22.19C48.9752 22.3444 48.7724 22.4616 48.5518 22.534C48.3312 22.6063 48.0978 22.6322 47.8665 22.61H46.1197V24.8338H45.2822V19.3139H47.8665C48.0992 19.2914 48.334 19.3176 48.5558 19.3908C48.7775 19.464 48.9812 19.5826 49.1535 19.7388C49.3258 19.895 49.4629 20.0854 49.5558 20.2975C49.6488 20.5096 49.6955 20.7387 49.6929 20.9698ZM48.8473 20.9698C48.8482 20.8364 48.8202 20.7043 48.765 20.5825C48.7098 20.4607 48.6288 20.352 48.5275 20.2638C48.4262 20.1756 48.3069 20.1099 48.1777 20.0712C48.0486 20.0325 47.9125 20.0217 47.7787 20.0394H46.1197V21.9083H47.7787C47.9131 21.9259 48.0498 21.9147 48.1795 21.8755C48.3091 21.8362 48.4287 21.7698 48.5301 21.6807C48.6315 21.5917 48.7123 21.4821 48.7671 21.3594C48.8218 21.2368 48.8492 21.1039 48.8473 20.9698ZM14.2335 10.1794C15.0654 10.1795 15.8798 10.4163 16.5794 10.8616L19.572 7.90279C18.1843 6.80204 16.4836 6.15719 14.7073 6.05829C12.9311 5.95938 11.1679 6.41135 9.66396 7.35108C8.16004 8.29082 6.99048 9.67142 6.31857 11.3001C5.64666 12.9288 5.50594 14.7243 5.91606 16.4359H10.3396C10.0022 15.7785 9.84115 15.0466 9.87174 14.3101C9.90233 13.5737 10.1236 12.8573 10.5143 12.2295C10.905 11.6017 11.4521 11.0836 12.1033 10.7247C12.7545 10.3657 13.4879 10.178 14.2335 10.1794ZM14.8486 12.5727L10.9412 16.4359H18.1273C17.7819 17.1168 17.2599 17.695 16.6146 18.1113C15.9693 18.5277 15.2239 18.7674 14.4543 18.8059C13.6848 18.8444 12.9187 18.6804 12.2342 18.3306C11.5497 17.9808 10.9713 17.4577 10.558 16.8148L7.56535 19.7735C8.56549 21.0109 9.89749 21.9452 11.4092 22.4698C12.9209 22.9943 14.5513 23.0878 16.1143 22.7397C17.6772 22.3916 19.1096 21.6159 20.2478 20.5012C21.386 19.3865 22.1841 17.9777 22.551 16.4359H23.8047C23.3761 18.5042 22.274 20.3767 20.6669 21.7669C19.0599 23.1572 17.0364 23.9886 14.906 24.134C12.7757 24.2794 10.6558 23.7307 8.8708 22.572C7.08576 21.4133 5.73384 19.7082 5.02189 17.7178C4.30994 15.7274 4.27717 13.5611 4.92858 11.5505C5.57999 9.53992 6.87972 7.79569 8.62891 6.58468C10.3781 5.37367 12.4804 4.76258 14.6142 4.84491C16.748 4.92724 18.7957 5.69846 20.4441 7.04056L23.2016 4.31425C20.8489 2.28992 17.8662 1.12284 14.7495 1.00708C11.6328 0.891324 8.56991 1.83387 6.0702 3.67797C3.57049 5.52208 1.78459 8.15661 1.00948 11.1435C0.234379 14.1303 0.516777 17.2895 1.80972 20.0957C3.10266 22.9018 5.32823 25.1859 8.11632 26.5679C10.9044 27.95 14.087 28.3468 17.1349 27.6924C20.1828 27.038 22.9122 25.3718 24.8694 22.9709C26.8265 20.57 27.8934 17.5791 27.8927 14.4955C27.892 13.8521 27.8451 13.2096 27.7525 12.5727L14.8486 12.5727Z" fill="white"/>
</svg>
